HIERARCHY
ROOT Hips
{
	OFFSET 54.876400 -4.267254 84.473099
	CHANNELS 6 Xposition Yposition Zposition Xrotation Yrotation Zrotation
	JOINT spine
	{
		OFFSET 0.000000 -0.342408 5.954376
		CHANNELS 3 Xrotation Yrotation Zrotation
		JOINT spine1
		{
			OFFSET 0.000000 -0.000001 8.856018
			CHANNELS 3 Xrotation Yrotation Zrotation
			JOINT spine2
			{
				OFFSET 0.000000 -0.000001 8.485672
				CHANNELS 3 Xrotation Yrotation Zrotation
				JOINT Neck
				{
					OFFSET 0.000000 -1.038703 21.786301
					CHANNELS 3 Xrotation Yrotation Zrotation
					JOINT Head
					{
						OFFSET 0.000000 -0.000001 6.582199
						CHANNELS 3 Xrotation Yrotation Zrotation
						End Site
						{
							OFFSET 0.000000 5.254358 15.932602
						}
					}
				}
				JOINT RightShoulder
				{
					OFFSET -3.573071 0.497524 9.163864
					CHANNELS 3 Xrotation Yrotation Zrotation
					JOINT RightArm
					{
						OFFSET 0.000000 -0.000002 12.019196
						CHANNELS 3 Xrotation Yrotation Zrotation
						JOINT RightArmRoll
						{
							OFFSET 0.000000 -0.000001 6.067535
							CHANNELS 3 Xrotation Yrotation Zrotation
							JOINT RightForeArm
							{
								OFFSET 0.000000 -0.000003 17.672592
								CHANNELS 3 Xrotation Yrotation Zrotation
								JOINT RightForeArmRoll
								{
									OFFSET 0.000000 -0.000001 6.808716
									CHANNELS 3 Xrotation Yrotation Zrotation
									JOINT RightHand
									{
										OFFSET 0.000000 -0.000002 13.663605
										CHANNELS 3 Xrotation Yrotation Zrotation
										End Site
										{
											OFFSET 0.000000 0.000000 0.100006
										}
									}
								}
							}
						}
					}
				}
				JOINT LeftShoulder
				{
					OFFSET 3.573071 0.497524 9.163864
					CHANNELS 3 Xrotation Yrotation Zrotation
					JOINT LeftArm
					{
						OFFSET 0.000000 -0.000002 12.019196
						CHANNELS 3 Xrotation Yrotation Zrotation
						JOINT LeftArmRoll
						{
							OFFSET 0.000000 -0.000001 6.067551
							CHANNELS 3 Xrotation Yrotation Zrotation
							JOINT LeftForeArm
							{
								OFFSET 0.000000 -0.000003 17.672607
								CHANNELS 3 Xrotation Yrotation Zrotation
								JOINT LeftForeArmRoll
								{
									OFFSET 0.000000 -0.000001 6.808716
									CHANNELS 3 Xrotation Yrotation Zrotation
									JOINT LeftHand
									{
										OFFSET 0.000000 -0.000002 13.663605
										CHANNELS 3 Xrotation Yrotation Zrotation
										End Site
										{
											OFFSET 0.000000 0.000000 0.100006
										}
									}
								}
							}
						}
					}
				}
			}
		}
	}
	JOINT RightUpLeg
	{
		OFFSET -5.277740 0.811858 -0.967796
		CHANNELS 3 Xrotation Yrotation Zrotation
		JOINT RightUpLegRoll
		{
			OFFSET 0.000000 -0.000003 16.021400
			CHANNELS 3 Xrotation Yrotation Zrotation
			JOINT RightLeg
			{
				OFFSET 0.000000 0.000003 -19.840103
				CHANNELS 3 Xrotation Yrotation Zrotation
				JOINT RightLegRoll
				{
					OFFSET 0.000000 -0.000003 19.904999
					CHANNELS 3 Xrotation Yrotation Zrotation
					JOINT RightFoot
					{
						OFFSET 0.000000 -0.000003 16.567497
						CHANNELS 3 Xrotation Yrotation Zrotation
						JOINT RightToeBase
						{
							OFFSET 0.000000 -0.000002 13.849602
							CHANNELS 3 Xrotation Yrotation Zrotation
							End Site
							{
								OFFSET 0.005871 0.773116 6.707275
							}
						}
					}
				}
			}
		}
	}
	JOINT LeftUpLeg
	{
		OFFSET 5.277740 0.811858 -0.967796
		CHANNELS 3 Xrotation Yrotation Zrotation
		JOINT LeftUpLegRoll
		{
			OFFSET 0.000000 -0.000003 16.021500
			CHANNELS 3 Xrotation Yrotation Zrotation
			JOINT LeftLeg
			{
				OFFSET 0.000000 -0.000003 19.840004
				CHANNELS 3 Xrotation Yrotation Zrotation
				JOINT LeftLegRoll
				{
					OFFSET 0.000000 -0.000003 20.089005
					CHANNELS 3 Xrotation Yrotation Zrotation
					JOINT LeftFoot
					{
						OFFSET 0.000000 -0.000003 16.383499
						CHANNELS 3 Xrotation Yrotation Zrotation
						JOINT LeftToeBase
						{
							OFFSET 0.000000 -0.000002 13.849594
							CHANNELS 3 Xrotation Yrotation Zrotation
							End Site
							{
								OFFSET -0.026310 0.773116 6.707275
							}
						}
					}
				}
			}
		}
	}
}
MOTION
Frames: 12
Frame Time: 0.041667
55.084305 -3.271813 84.567802 -12.303542 -1.457132 -0.804595 -0.507848 0.227600 0.052139 2.990286 0.454896 0.098885 4.635377 0.456028 0.091288 9.097861 9.410776 -0.943020 6.793886 -10.921942 -0.825798 7.415826 -64.707286 7.791439 -71.696926 -153.489609 -94.391097 0.000002 -0.000004 -0.000002 48.675999 3.196858 -3.827953 0.000000 -0.000012 -3.000001 -5.000171 -7.999940 0.000006 -19.113811 69.200103 22.536462 -61.234497 160.824317 95.590956 -0.000000 -0.000000 0.000000 49.893111 -3.165979 3.866388 -0.000000 -0.000021 2.999999 -5.000165 7.999919 -0.000009 5.727544 -175.910443 6.254552 -179.999991 0.000005 -1.240999 169.754626 -3.320323 -0.631779 0.000004 -0.000003 0.147808 69.835679 6.875489 2.118327 25.456957 -7.355615 0.000000 7.425122 -179.755074 -0.102014 -0.000005 -0.000004 -1.246910 -8.060655 2.262210 0.370669 0.000004 -0.000005 -0.128436 70.068254 -6.866565 -2.120246 25.456950 7.355613 -0.000001 
55.082104 -3.268835 84.569199 -12.321610 -1.450769 -0.807131 -0.505006 0.227508 0.052129 2.996135 0.455803 0.098719 4.641236 0.456932 0.090954 9.118280 9.400347 -0.943439 6.790107 -10.907716 -0.825325 7.351531 -64.692410 7.721054 -71.889394 -153.361297 -94.376672 0.000001 -0.000001 -0.000003 48.719289 3.195780 -3.829183 0.000001 -0.000011 -2.999999 -5.000171 -7.999937 0.000009 -19.084325 69.170098 22.503556 -61.431268 160.594686 95.567863 0.000000 0.000001 0.000000 50.251034 -3.156936 3.877611 -0.000000 -0.000023 3.000001 -5.000163 7.999917 -0.000008 5.748124 -175.924527 6.247279 -179.999991 0.000005 -1.241001 169.758273 -3.314458 -0.631501 0.000004 -0.000003 0.147771 69.830912 6.875504 2.118326 25.456955 -7.355614 0.000000 7.474841 -179.767997 -0.115088 -0.000004 -0.000004 -1.246820 -8.028233 2.268283 0.370875 0.000004 -0.000005 -0.128397 70.069422 -6.866563 -2.120574 25.456950 7.355612 -0.000000 
55.074005 -3.268545 84.572693 -12.338084 -1.444953 -0.808798 -0.502430 0.227457 0.052119 3.001387 0.456680 0.098553 4.646488 0.457805 0.090641 9.141223 9.391877 -0.944699 6.782119 -10.895872 -0.825859 7.284538 -64.676940 7.647677 -72.083808 -153.235116 -94.361802 -0.000002 -0.000001 -0.000001 48.754256 3.194913 -3.830167 0.000001 -0.000011 -3.000000 -5.000173 -7.999936 0.000007 -19.056540 69.141547 22.472550 -61.628080 160.368306 95.545706 -0.000001 -0.000001 -0.000001 50.601050 -3.148050 3.888566 -0.000001 -0.000023 2.999999 -5.000164 7.999914 -0.000010 5.766669 -175.937600 6.240286 -179.999991 0.000005 -1.241000 169.761265 -3.307593 -0.630085 0.000004 -0.000003 0.147739 69.826267 6.875558 2.118321 25.456952 -7.355613 0.000000 7.518396 -179.779895 -0.127270 -0.000004 -0.000004 -1.246720 -8.000190 2.273935 0.371020 0.000004 -0.000005 -0.128357 70.070275 -6.866586 -2.120925 25.456952 7.355613 0.000000 
55.081802 -3.266585 84.571892 -12.352464 -1.439833 -0.809353 -0.500223 0.227471 0.052109 3.005826 0.457542 0.098387 4.650929 0.458664 0.090355 9.167396 9.385590 -0.946980 6.769113 -10.886918 -0.827544 7.214637 -64.661080 7.571050 -72.280709 -153.110834 -94.347698 -0.000001 -0.000003 0.000000 48.780603 3.194253 -3.830904 0.000000 -0.000012 -2.999998 -5.000175 -7.999936 0.000009 -19.030678 69.114671 22.443681 -61.824461 160.146216 95.523754 0.000001 -0.000000 0.000003 50.941839 -3.139344 3.899217 -0.000001 -0.000024 3.000001 -5.000163 7.999916 -0.000007 5.782685 -175.948651 6.233784 -179.999991 0.000005 -1.241000 169.763614 -3.302696 -0.630060 0.000004 -0.000003 0.147706 69.822039 6.875590 2.118190 25.456959 -7.355613 0.000000 7.554354 -179.789840 -0.138219 -0.000005 -0.000004 -1.246620 -7.977502 2.279073 0.371095 0.000004 -0.000005 -0.128316 70.070904 -6.866567 -2.121182 25.456953 7.355613 -0.000000 
55.072304 -3.268765 84.574402 -12.364341 -1.435538 -0.808556 -0.498491 0.227573 0.052099 3.009238 0.458400 0.098222 4.654339 0.459519 0.090096 9.197508 9.381694 -0.950456 6.750244 -10.881174 -0.830585 7.141454 -64.644640 7.490768 -72.479447 -152.988656 -94.333088 -0.000000 -0.000004 -0.000004 48.797737 3.193822 -3.831386 -0.000001 -0.000012 -2.999998 -5.000175 -7.999937 0.000010 -19.006984 69.089856 22.417200 -62.019928 159.928729 95.502382 0.000001 -0.000001 0.000001 51.272212 -3.130859 3.909525 0.000000 -0.000022 3.000001 -5.000166 7.999918 -0.000008 5.795644 -175.959702 6.227642 -179.999991 0.000005 -1.240999 169.765171 -3.297792 -0.630093 0.000004 -0.000003 0.147674 69.818132 6.875634 2.118238 25.456953 -7.355613 0.000001 7.581269 -179.799758 -0.147982 -0.000004 -0.000004 -1.246520 -7.961113 2.283581 0.371088 0.000004 -0.000005 -0.128276 70.071218 -6.866541 -2.121560 25.456952 7.355613 -0.000000 
55.072205 -3.264948 84.576897 -12.373329 -1.432226 -0.806169 -0.497325 0.227789 0.052089 3.011407 0.459270 0.098056 4.656511 0.460385 0.089870 9.232251 9.380403 -0.955304 6.724688 -10.878855 -0.835172 7.064701 -64.627639 7.406492 -72.680494 -152.868267 -94.318977 0.000001 -0.000003 -0.000001 48.805059 3.193636 -3.831602 0.000000 -0.000011 -3.000000 -5.000173 -7.999938 0.000009 -18.985464 69.067173 22.393166 -62.213960 159.716925 95.480915 -0.000002 -0.000002 -0.000000 51.591069 -3.122630 3.919471 -0.000001 -0.000023 2.999996 -5.000162 7.999918 -0.000009 5.805079 -175.968704 6.222148 -179.999991 0.000005 -1.240999 169.765827 -3.292879 -0.630167 0.000004 -0.000003 0.147641 69.814649 6.875654 2.118259 25.456957 -7.355614 -0.000000 7.597709 -179.807708 -0.156085 -0.000005 -0.000004 -1.246420 -7.951997 2.287346 0.370987 0.000004 -0.000005 -0.128238 70.071109 -6.866540 -2.121767 25.456953 7.355613 0.000000 
55.064606 -3.268695 84.576195 -12.380018 -1.429894 -0.802472 -0.496572 0.228103 0.052080 3.012628 0.460145 0.097888 4.657731 0.461257 0.089673 9.271160 9.381794 -0.961399 6.692583 -10.879851 -0.841217 6.983343 -64.610024 7.317086 -72.885707 -152.751252 -94.305658 -0.000001 -0.000003 -0.000000 48.798437 3.193779 -3.831420 -0.000001 -0.000011 -2.999999 -5.000169 -7.999943 0.000011 -18.964927 69.046375 22.370222 -62.408832 159.508140 95.460698 0.000001 0.000002 -0.000000 51.901306 -3.114546 3.929071 -0.000001 -0.000021 2.999999 -5.000164 7.999916 -0.000011 5.811391 -175.975726 6.217315 -179.999991 0.000005 -1.240999 169.765363 -3.288948 -0.629485 0.000004 -0.000003 0.147609 69.811589 6.875686 2.118255 25.456955 -7.355615 0.000002 7.604052 -179.814647 -0.162811 -0.000005 -0.000004 -1.246320 -7.950314 2.290495 0.370787 0.000004 -0.000005 -0.128199 70.070474 -6.866558 -2.121908 25.456948 7.355613 -0.000000 
55.069305 -3.269203 84.576897 -12.385109 -1.428362 -0.797939 -0.495995 0.228485 0.052070 3.013359 0.461003 0.097718 4.658461 0.462111 0.089501 9.313089 9.385657 -0.968447 6.654972 -10.883649 -0.848485 6.896902 -64.591596 7.222030 -73.095899 -152.638841 -94.292100 0.000001 -0.000004 0.000002 48.775190 3.194284 -3.830734 0.000000 -0.000012 -3.000002 -5.000171 -7.999941 0.000009 -18.944146 69.026855 22.346972 -62.606149 159.300748 95.440515 0.000003 -0.000000 0.000001 52.206336 -3.106543 3.938420 -0.000002 -0.000022 3.000001 -5.000166 7.999918 -0.000008 5.815469 -175.981723 6.212925 -179.999991 0.000005 -1.241997 169.763887 -3.285974 -0.630034 0.000004 -0.000003 0.147576 69.808638 6.875728 2.118244 25.456957 -7.355612 -0.000000 7.602264 -179.819592 -0.168383 -0.000005 -0.000004 -1.246210 -7.955033 2.293222 0.370494 0.000004 -0.000005 -0.128159 70.069511 -6.866532 -2.122062 25.456953 7.355613 -0.000000 
55.072903 -3.280106 84.552902 -12.388807 -1.427511 -0.792634 -0.495583 0.228921 0.052061 3.013629 0.461836 0.097547 4.658731 0.462942 0.089354 9.357699 9.391813 -0.976377 6.612415 -10.890034 -0.856869 6.806071 -64.572328 7.122105 -73.310927 -152.530091 -94.279526 -0.000001 -0.000002 -0.000000 48.737412 3.195124 -3.829625 -0.000001 -0.000012 -3.000000 -5.000172 -7.999939 0.000007 -18.923288 69.008386 22.323645 -62.805707 159.094640 95.421308 -0.000001 0.000002 -0.000000 52.505966 -3.098609 3.947498 -0.000001 -0.000020 2.999999 -5.000165 7.999915 -0.000009 5.817519 -175.986709 6.208933 -179.999991 0.000005 -1.241997 169.761633 -3.282011 -0.629453 0.000004 -0.000003 0.147545 69.805790 6.875769 2.118127 25.456953 -7.355613 0.000001 7.593228 -179.824537 -0.173147 -0.000005 -0.000004 -1.246110 -7.965404 2.295571 0.370125 0.000004 -0.000005 -0.128117 70.068049 -6.866560 -2.122258 25.456948 7.355613 -0.000000 
55.074005 -3.272762 84.561089 -12.391208 -1.427254 -0.786628 -0.495329 0.229397 0.052051 3.013491 0.462638 0.097375 4.658592 0.463741 0.089230 9.404668 9.400053 -0.985119 6.565469 -10.898692 -0.866285 6.711537 -64.552371 7.018074 -73.529316 -152.425042 -94.266070 0.000001 -0.000002 -0.000000 48.687200 3.196256 -3.828142 -0.000001 -0.000011 -3.000001 -5.000173 -7.999938 0.000008 -18.903052 68.991208 22.301005 -63.006781 158.890704 95.401944 -0.000000 0.000001 0.000001 52.799869 -3.090772 3.956324 -0.000004 -0.000022 3.000000 -5.000165 7.999919 -0.000006 5.817723 -175.991681 6.205161 -179.999991 0.000005 -1.241996 169.758546 -3.279022 -0.629096 0.000004 -0.000003 0.147514 69.803038 6.875779 2.118201 25.456953 -7.355613 0.000001 7.577846 -179.827515 -0.176927 -0.000005 -0.000004 -1.246000 -7.980647 2.297575 0.369691 0.000004 -0.000005 -0.128073 70.066334 -6.866551 -2.122364 25.456950 7.355613 -0.000000 
55.075203 -3.255283 84.572090 -12.392408 -1.427492 -0.779988 -0.495219 0.229901 0.052042 3.012979 0.463402 0.097203 4.658084 0.464502 0.089127 9.453679 9.410192 -0.994604 6.514668 -10.909614 -0.876608 6.613988 -64.531778 6.910696 -73.751467 -152.322467 -94.253940 -0.000002 -0.000004 0.000000 48.626774 3.197607 -3.826354 -0.000001 -0.000011 -3.000002 -5.000169 -7.999937 0.000006 -18.883547 68.974993 22.279164 -63.208777 158.689241 95.382396 0.000000 0.000001 0.000002 53.087854 -3.083032 3.964894 -0.000003 -0.000023 2.999999 -5.000168 7.999917 -0.000009 5.816299 -175.994659 6.201769 -179.999991 0.000005 -1.241996 169.754981 -3.276041 -0.629766 0.000004 -0.000003 0.147485 69.800305 6.875859 2.118185 25.456953 -7.355613 0.000000 7.557028 -179.830493 -0.180074 -0.000005 -0.000004 -1.245890 -7.999994 2.299259 0.369207 0.000004 -0.000005 -0.128028 70.064224 -6.866563 -2.122497 25.456953 7.355613 0.000001 
55.075405 -3.258157 84.571289 -12.392611 -1.428096 -0.772776 -0.495250 0.230422 0.052032 3.012140 0.464120 0.097032 4.657245 0.465218 0.089042 9.504396 9.422043 -1.004760 6.460566 -10.922486 -0.887771 6.514068 -64.510645 6.800700 -73.976358 -152.221994 -94.242397 -0.000001 -0.000004 0.000001 48.558134 3.199168 -3.824332 0.000002 -0.000011 -3.000001 -5.000173 -7.999936 0.000011 -18.865370 68.959974 22.258799 -63.411633 158.490250 95.363627 0.000002 0.000001 0.000000 53.369442 -3.075416 3.973200 -0.000003 -0.000021 3.000002 -5.000166 7.999915 -0.000006 5.813440 -175.997623 6.198477 -179.999991 0.000005 -1.241996 169.750992 -3.274023 -0.629638 0.000004 -0.000003 0.147455 69.797771 6.875875 2.118145 25.456955 -7.355613 0.000000 7.531666 -179.832460 -0.182541 -0.000005 -0.000004 -1.245770 -8.022690 2.300676 0.368687 0.000004 -0.000005 -0.127981 70.061997 -6.866573 -2.122536 25.456952 7.355613 0.000000 
